<?xml version="1.0" standalone="no"?><!DOCTYPE svg PUBLIC "-//W3C//DTD SVG 1.1//EN" "http://www.w3.org/Graphics/SVG/1.1/DTD/svg11.dtd"><svg t="1524040657999" class="icon" style="" viewBox="0 0 1024 1024" version="1.1" xmlns="http://www.w3.org/2000/svg" p-id="1892" xmlns:xlink="http://www.w3.org/1999/xlink" width="200" height="200"><defs><style type="text/css"></style></defs><path d="M655.6 606.7c-41.9-15.7-86-27.3-131.6-34.4 2.1 0 4.3 0.1 6.1 0.5-10.9-2-19.1-11.7-19.1-23.3 0-5.9 2.1-11.3 5.7-15.4-0.2 0.3-0.6 0.4-0.9 0.5 12-12.9 22.9-27.7 32.1-43.9 15.2-3.1 31.6-15.3 42.5-33.9 16.5-28 14.3-59.5-4.6-70.4-1.2-0.7-2.5-1-3.9-1.5 0.1-0.8 0-1.5 0.1-2.3h1.2v-72.2h-0.6c0.3-2.9 0.6-5.9 0.6-8.9 0-54.5-43.8-98.7-98.1-99.5-24.3-22.6-56.7-36.6-92.4-36.6-75.1 0-136 60.8-136 136 0 3 0.3 6.1 0.5 9.1h-0.5v72.2h1.2c0.1 0.8 0 1.5 0.1 2.3-1.3 0.5-2.6 0.8-3.9 1.5-19 10.8-21 42.3-4.6 70.4 10.9 18.6 27.1 30.8 42.5 33.9 9.2 16.1 20 31.1 32.1 43.9-0.3-0.2-0.7-0.3-0.9-0.5 3.6 4.2 5.7 9.5 5.7 15.4 0 11.6-8.2 21.2-19.1 23.3 1.9-0.4 4-0.5 6.2-0.5-45.4 7-89.4 18.6-131.2 34.2C142 625.2 112 667 112 716v15.8c0 36.2 24.5 66.4 57.8 76.4 80.5 18 164.2 27.6 250.3 27.6 85.9 0 169.5-9.6 249.9-27.6 33.5-9.8 58.2-40.1 58.2-76.4V716c-0.3-48.9-30.2-90.6-72.6-109.3z m-75.4-84.6c3 3.7 5 8.4 5 13.7 0 4.2-1.3 7.9-3.5 11.2 75 17.7 107.8 34.6 101.5 32.1 47.5 22.4 80.8 72.5 80.8 131.1v19.1c0 17.2-4.4 33.1-11.8 46.9 37-4 73.3-10.1 108.9-18.3 27.6-8.4 47.8-34.4 47.8-65.5v-13.6c0-41.9-24.6-77.7-59.5-93.7-35.1-13.7-72-23.7-110.1-29.8 2.3 0 9 1.5 11.1 1.9-9.5-1.8-21.1-11.9-21.1-22.1 0-5.2 4.9-18.4 8-22-1.3 1.5-7.3 10-11.4 9.4 54.6-8.7 92.4-27.3 92.4-49 0-4.5-1.6-8.7-4.7-12.8 0.4 0.5 1 0.8 1.3 1.5-9.4-17.8-14.7-38-14.7-59.4V383c0-80-64.9-144.9-144.9-144.9-14.6 0-28.5 2.4-41.8 6.4 3.8 12.4 5.8 25.6 5.8 39.2 0 3-0.4 6-0.6 8.9h0.6v71.1c24.6 25.3 24 74.3-4.4 118.7-10 15.6-21.4 30.2-34.6 40.5" p-id="1893" fill="#ffffff"></path></svg>