<?xml version="1.0" standalone="no"?><!DOCTYPE svg PUBLIC "-//W3C//DTD SVG 1.1//EN" "http://www.w3.org/Graphics/SVG/1.1/DTD/svg11.dtd"><svg t="1524835848668" class="icon" style="" viewBox="0 0 1025 1024" version="1.1" xmlns="http://www.w3.org/2000/svg" p-id="1137" xmlns:xlink="http://www.w3.org/1999/xlink" width="200.1953125" height="200"><defs><style type="text/css"></style></defs><path d="M620.75904 857.08288 579.584 857.08288c-5.42208 0-118.144 0-123.56608 0l-41.11872 0c-5.42208 0-9.85088 4.42368-9.85088 9.85088 0 61.13792 51.68128 112.83456 112.83968 112.83456 61.15328 0 112.768-51.67616 112.768-112.83456C630.60992 861.45536 626.24256 857.08288 620.75904 857.08288zM939.5456 805.18144c0-3.88608-0.768-7.68512-2.31936-11.45344-8.96-65.95584-45.48096-124.94336-100.64384-162.688L836.5824 455.12704c0-132.68992-82.7136-251.776-206.49472-298.3168-5.08928-57.27232-54.10816-102.81472-112.21504-102.81472s-107.12576 45.48096-112.27136 102.7584C281.84064 203.37152 199.1168 322.44224 199.1168 455.1424l0 175.91296c-55.16288 37.80608-91.62752 96.68096-100.59264 162.63168-2.22208 5.48864-2.82112 11.28448-1.77152 16.98816-0.39424 4.98176-0.54272 10.01984-0.54272 15.10912 0 5.42208 4.42368 9.85088 9.85088 9.85088l823.6544 0c5.4272 0 9.85088-4.4288 9.85088-9.85088 0-5.08928-0.22528-10.07616-0.54272-15.04768C939.25888 809.16992 939.5456 807.22944 939.5456 805.18144z" p-id="1138" fill="#ffffff"></path></svg>