<?xml version="1.0" standalone="no"?>
<!DOCTYPE svg PUBLIC "-//W3C//DTD SVG 1.1//EN" "http://www.w3.org/Graphics/SVG/1.1/DTD/svg11.dtd">
<svg t="1523349880823" class="icon" style="" viewBox="0 0 1024 1024" version="1.1" xmlns="http://www.w3.org/2000/svg" p-id="977" xmlns:xlink="http://www.w3.org/1999/xlink" width="200" height="200">
    <defs>
        <style type="text/css">
        </style>
    </defs>
    <path d="M149.2 923.2c-4.5 0-8.8-2-11.8-5.5-3.7-4.4-4.7-10.5-2.5-15.8L194.2 756C110.4 683.6 64.4 588 64.4 485.5c0-211.8 201-384.1 448-384.1s448 172.3 448 384.1-201 384.1-448 384.1c-8.5 0-15.4-6.9-15.4-15.4s6.9-15.4 15.4-15.4c230 0 417.1-158.5 417.1-353.2 0-194.8-187.1-353.2-417.1-353.2S95.3 290.7 95.3 485.5c0 96.6 45.2 186.7 127.2 253.9 5.2 4.3 7.1 11.5 4.5 17.8l-52.5 129.2 216.4-47.3c8.4-1.8 16.6 3.5 18.4 11.8 1.8 8.3-3.5 16.6-11.8 18.4l-245 53.5c-1.1 0.2-2.2 0.4-3.3 0.4z"
          p-id="978" fill="#000000"></path>
    <path d="M431 486.4c-16.6 0-30.1-13.5-30.1-30.1s13.5-30.1 30.1-30.1 30.1 13.5 30.1 30.1-13.5 30.1-30.1 30.1z m-0.9-30.1c0 0.5 0.4 0.8 0.8 0.8l-0.8-0.8zM707.7 486.4c-16.6 0-30.1-13.5-30.1-30.1s13.5-30.1 30.1-30.1 30.1 13.5 30.1 30.1-13.6 30.1-30.1 30.1z m-0.9-30.1c0 0.5 0.4 0.8 0.8 0.8l-0.8-0.8z"
          p-id="979" fill="#000000"></path>
</svg>